<svg version="1" xmlns="http://www.w3.org/2000/svg" width="253.333" height="253.333" viewBox="0 0 190.000000 190.000000"><path d="M0 95v95h190V0H0v95zm97.6-38.5c.9 1.4 2.2 2.5 3 2.5 1.7 0 8.4 5.8 8.4 7.4 0 .6.8 2.2 1.7 3.6 1.3 1.9 1.6 4.2 1.4 11.4-.1 5-.4 9.3-.6 9.4-.2.2-4-1.6-8.4-4.1L95 82.1l-8.1 4.6c-4.4 2.5-8.2 4.3-8.4 4.1-.2-.1-.5-4.4-.6-9.4-.2-7.2.1-9.5 1.4-11.4.9-1.4 1.7-3 1.7-3.6 0-1.6 6.7-7.4 8.4-7.4.8 0 2.1-1.1 3-2.5.9-1.4 2.1-2.5 2.6-2.5s1.7 1.1 2.6 2.5zM32.2 91.2c.3 2.3.5 2.3 20.8 2.8 11.3.3 20 .7 19.3.8-4.6.8-12.9 8.2-9.2 8.2.7 0 1 5.1.8 16-.2 12.3-.5 16-1.5 16-.8 0-2.4 1.8-3.6 4l-2.3 4H26v-26.3c0-14.5.3-26.7.7-27 .3-.4 1.7-.7 2.9-.7 1.6 0 2.4.7 2.6 2.2zm131.6 25l.2 26.8h-30.8l-1.2-3c-.7-1.7-2.2-3.7-3.3-4.5-1.9-1.4-2.1-2.7-2.5-17-.3-11-.1-15.5.7-15.5 2.7 0 .7-2.8-4-5.5l-5-3 19.8-.5c19.8-.5 19.8-.5 20.1-2.8.3-1.9.9-2.3 3-2l2.7.3.3 26.7zM75 119v16h-5v-32h5v16zm11.4-13.4c.4 1.5.4 8.7 0 16-.7 13.2-.7 13.4-3 13.4H81v-32h2.4c1.7 0 2.6.7 3 2.6zM97.9 119c-.2 15.8-.2 16-2.4 16-1.9 0-2.3-.7-2.9-4.6-.3-2.6-.6-9.8-.6-16V103h6.1l-.2 16zm11.1 0v16h-2.3c-2.4 0-2.4-.2-3-13-.8-16-.3-19 2.9-19h2.4v16zm11 0v16h-5v-32h5v16z"/><path d="M83.7 72.7c-.4.3-.7 2.4-.7 4.5 0 3.7.2 3.9 2.8 3.6 2.1-.2 2.8-.9 3-3.1.5-4.1-2.8-7.3-5.1-5zM92.4 73.3c-.3.9-.4 2.8-.2 4.4.2 2.2.8 2.8 2.8 2.8 2.3 0 2.5-.4 2.5-4 0-3.4-.3-4-2.3-4.3-1.3-.2-2.4.3-2.8 1.1zM102.2 73.2c-2.6 2.6-1 7.8 2.5 7.8 2.2 0 2.4-.3 2.1-4.2-.3-4.5-2.2-6-4.6-3.6zM34.7 104.7c-.4.3-.7 3-.7 6 0 4.9.2 5.3 2.3 5.3 1.3 0 2.9-.6 3.6-1.3 1.1-1 1.4-1 1.8 0 .3.7 1.5 1.3 2.8 1.3 1.3 0 2.5-.6 2.8-1.3.4-1 .7-1 1.8 0 .7.7 2.3 1.3 3.6 1.3 2.1 0 2.3-.4 2.3-5.5 0-6.2-1.6-7.8-5.3-5.5-1.5.9-2.2 1-2.5.1-.5-1.5-4.9-1.4-5.5.1-.4 1-.7 1-1.8 0-1.4-1.3-4.2-1.6-5.2-.5zM34 124c0 5.6.2 6 2.3 6 1.3 0 2.9-.6 3.6-1.3 1.1-1 1.4-1 1.8 0 .3.7 1.5 1.3 2.8 1.3 1.3 0 2.5-.6 2.8-1.3.4-1 .7-1 1.8 0 .7.7 2.3 1.3 3.6 1.3 2.1 0 2.3-.4 2.3-6s-.2-6-2.3-6c-1.3 0-2.9.6-3.6 1.2-1.1 1-1.4 1-1.8 0-.3-.6-1.5-1.2-2.8-1.2-1.3 0-2.5.6-2.8 1.2-.4 1-.7 1-1.8 0-.7-.6-2.3-1.2-3.6-1.2-2.1 0-2.3.4-2.3 6zM135.7 104.7c-.4.3-.7 3-.7 6 0 4.9.2 5.3 2.3 5.3 1.3 0 2.9-.6 3.6-1.3 1.1-1 1.4-1 1.8 0 .3.7 1.5 1.3 2.8 1.3 1.3 0 2.5-.6 2.8-1.3.4-1 .7-1 1.8 0 .7.7 2.3 1.3 3.6 1.3 2.1 0 2.3-.4 2.3-5.5 0-6.2-1.6-7.8-5.3-5.5-1.5.9-2.2 1-2.5.1-.5-1.5-4.9-1.4-5.5.1-.4 1-.7 1-1.8 0-1.4-1.3-4.2-1.6-5.2-.5zM135 124c0 5.6.2 6 2.3 6 1.3 0 2.9-.6 3.6-1.3 1.1-1 1.4-1 1.8 0 .6 1.6 4.5 1.7 6 .2.8-.8 1.3-.8 1.7 0 .4.6 1.8 1.1 3.2 1.1 2.3 0 2.4-.3 2.4-6 0-5.6-.2-6-2.3-6-1.3 0-2.9.6-3.6 1.2-1.1 1-1.4 1-1.8 0-.3-.6-1.5-1.2-2.8-1.2-1.3 0-2.5.6-2.8 1.2-.4 1-.7 1-1.8 0-.7-.6-2.3-1.2-3.6-1.2-2.1 0-2.3.4-2.3 6z"/></svg>